<svg id="Layer_1" data-name="Layer 1" xmlns="http://www.w3.org/2000/svg" viewBox="0 0 75.76 44.12"><defs><style>.cls-1{fill:none;}</style></defs><title>ogen</title><path d="M65.82,13.91A35.3,35.3,0,0,1,37.88,27.6,35.31,35.31,0,0,1,10,13.91c0.22-.28-9.79-0.28-10,0A43.62,43.62,0,0,0,6.12,22.2v9.23h5V26.75a43.52,43.52,0,0,0,4.17,2.88v8.81h5v-6.2a43.36,43.36,0,0,0,5.17,1.92v7.61h5V35.32a43.65,43.65,0,0,0,5.67.6v7.85h5V35.85a43.28,43.28,0,0,0,5.67-.79v7h5V33.69A43.14,43.14,0,0,0,56.12,32v6.48h5v-9.2a43.78,43.78,0,0,0,4.17-3v5.19h5V21.48a43.69,43.69,0,0,0,5.48-7.57c-0.16-.28-10.17-0.28-9.95,0"/><rect class="cls-1" y="-64.12" width="290.85" height="170.9"/></svg>