<svg id="Layer_1" data-name="Layer 1" xmlns="http://www.w3.org/2000/svg" viewBox="0 0 98.93 156"><defs><style>.cls-1{fill:#fff;}.cls-2{fill:red;}</style></defs><title>marker</title><path class="cls-1" d="M49.45,142.69C33.76,116.83,7,68.72,7,49.44A42,42,0,0,1,49.47,7c24.2,0,42.46,18.25,42.46,42.44C91.92,68.35,65.14,116.68,49.45,142.69Z"/><path class="cls-2" d="M49.47,14c20.21,0,35.46,15.24,35.46,35.44,0,3.33-1.66,17.27-23,57.16-4.33,8.1-8.69,15.79-12.5,22.33-3.79-6.48-8.13-14.11-12.44-22.14-20.75-38.66-23-53-23-57.35A35,35,0,0,1,49.47,14m0-14A49,49,0,0,0,0,49.44C0,78.34,49.47,156,49.47,156S98.93,77.78,98.93,49.44C98.93,21.86,77.67,0,49.47,0h0Z"/><circle class="cls-2" cx="49.46" cy="48.01" r="13.17"/></svg>