<svg id="Layer_1" data-name="Layer 1" xmlns="http://www.w3.org/2000/svg" viewBox="0 0 53.33 92.74"><defs><style>.cls-1{fill:red;}</style></defs><title>straatbeeld-icoon</title><path class="cls-1" d="M114,93.32L100.38,50.81A20.34,20.34,0,0,0,87.5,14.62,20.51,20.51,0,0,0,67,35a20.23,20.23,0,0,0,7.6,15.84L61,93.32c0,0.26-.13.39-0.13,0.64,0,3.86,3,7.34,8.37,9.92a46.31,46.31,0,0,0,18.29,3.48,46.31,46.31,0,0,0,18.29-3.48c5.41-2.45,8.37-6.05,8.37-9.92A1.4,1.4,0,0,1,114,93.32Z" transform="translate(-60.84 -14.62)"/><path class="cls-1" d="M71,35A16.49,16.49,0,1,1,87.5,51.33,16.41,16.41,0,0,1,71,35Z" transform="translate(-60.84 -14.62)"/><path class="cls-1" d="M87.5,103.37c-13.14,0-22.28-4.77-22.67-9.27L78.1,53a21.13,21.13,0,0,0,9.4,2.32A19.55,19.55,0,0,0,96.9,53l13.27,41.09C109.78,98.6,100.64,103.37,87.5,103.37Z" transform="translate(-60.84 -14.62)"/></svg>