<svg id="Layer_1" data-name="Layer 1" xmlns="http://www.w3.org/2000/svg" viewBox="0 0 75.76 44.12"><defs><style>.cls-1{fill:red;}.cls-2{fill:none;}</style></defs><title>ogen</title><path class="cls-1" d="M65.82,14.37A35.3,35.3,0,0,1,37.88,28,35.31,35.31,0,0,1,10,14.37c0.22-.28-9.79-0.28-10,0a43.62,43.62,0,0,0,6.12,8.29v9.23h5V27.2a43.52,43.52,0,0,0,4.17,2.88v8.8h5v-6.2a43.36,43.36,0,0,0,5.17,1.92v7.61h5V35.77a43.65,43.65,0,0,0,5.67.6v7.85h5V36.3a43.28,43.28,0,0,0,5.67-.79v7h5V34.14a43.14,43.14,0,0,0,4.33-1.73v6.48h5v-9.2a43.78,43.78,0,0,0,4.17-3v5.19h5V21.93a43.69,43.69,0,0,0,5.48-7.57c-0.16-.28-10.17-0.28-9.95,0"/><rect class="cls-2" width="290.85" height="170.9"/></svg>