<svg id="Layer_1" data-name="Layer 1" xmlns="http://www.w3.org/2000/svg" viewBox="0 0 75.76 44.12"><defs><style>.cls-1{fill:#999;}.cls-2{fill:none;}</style></defs><title>ogen</title><path class="cls-1" d="M65.82,14.27A35.3,35.3,0,0,1,37.88,27.95,35.31,35.31,0,0,1,10,14.27C10.17,14,.16,14,0,14.27a43.62,43.62,0,0,0,6.12,8.29v9.23h5V27.11A43.51,43.51,0,0,0,15.29,30v8.81h5v-6.2a43.36,43.36,0,0,0,5.17,1.92v7.61h5V35.67a43.65,43.65,0,0,0,5.67.6v7.85h5V36.2a43.27,43.27,0,0,0,5.67-.79v7h5V34a43.14,43.14,0,0,0,4.33-1.73v6.48h5v-9.2a43.78,43.78,0,0,0,4.17-3v5.19h5V21.84a43.69,43.69,0,0,0,5.48-7.57c-0.16-.28-10.17-0.28-9.95,0"/><rect class="cls-2" y="-128.24" width="290.85" height="170.9"/></svg>