<svg id="Layer_1" data-name="Layer 1" xmlns="http://www.w3.org/2000/svg" viewBox="0 0 64.78 64.78"><defs><style>.cls-1,.cls-3{fill:none;}.cls-1{stroke:#fff;stroke-miterlimit:10;stroke-width:2px;}.cls-2{fill:#fff;}</style></defs><title>zoeken</title><path class="cls-1" d="M53.41,50.6L52,52a2.33,2.33,0,0,1-3.29,0L33.46,37.12l4.61-4.73,15.3,14.93A2.32,2.32,0,0,1,53.41,50.6Z"/><path class="cls-2" d="M53.41,50.6L52,52a2.33,2.33,0,0,1-3.29,0L33.46,37.12l4.61-4.73,15.3,14.93a2.32,2.32,0,0,1,0,3.29"/><path class="cls-2" d="M53.41,51.67L52,53.07a2.33,2.33,0,0,1-3.29,0L33.46,38.19l4.61-4.73,15.3,14.93a2.32,2.32,0,0,1,0,3.29"/><path class="cls-1" d="M53.41,51.67L52,53.07a2.33,2.33,0,0,1-3.29,0L33.46,38.19l4.61-4.73,15.3,14.93A2.32,2.32,0,0,1,53.41,51.67Z"/><path class="cls-2" d="M36.37,15.29a15.11,15.11,0,1,0,.26,21.37,15.12,15.12,0,0,0-.26-21.37M34.87,35a12.66,12.66,0,1,1-.22-17.9A12.66,12.66,0,0,1,34.87,35"/><path class="cls-1" d="M36.37,15.29a15.11,15.11,0,1,0,.26,21.37A15.12,15.12,0,0,0,36.37,15.29ZM34.87,35a12.66,12.66,0,1,1-.22-17.9A12.66,12.66,0,0,1,34.87,35Z"/><rect class="cls-3" width="64.78" height="224.39"/></svg>