<svg id="tijdelijk" xmlns="http://www.w3.org/2000/svg" viewBox="0 0 17.99 17.99"><defs><style>.cls-1{fill:#666;}.cls-2{fill:#fff;}</style></defs><title>icons</title><rect class="cls-1" x="-0.01" y="0.01" width="17.99" height="17.99"/><path class="cls-2" d="M7.67,10.44a2,2,0,0,1,.61-1.57C9.57,7.62,10.52,7,10.52,6.24A1.18,1.18,0,0,0,9.26,5,1.62,1.62,0,0,0,7.53,6.57L4.83,6.4A4,4,0,0,1,9.21,2.6c2.14,0,3.94,1.19,3.94,3.45,0,1.33-.51,2.14-2.17,3.45a1.46,1.46,0,0,0-.68,1.21v0.51H7.67V10.44ZM9,12.19A1.61,1.61,0,1,1,7.37,13.8,1.61,1.61,0,0,1,9,12.19Z"/></svg>