<svg id="tijdelijk" xmlns="http://www.w3.org/2000/svg" viewBox="0 0 17.99 17.99"><defs><style>.cls-1{fill:red;}.cls-2{fill:#fff;}</style></defs><title>icons</title><rect class="cls-1" width="17.99" height="17.99"/><path class="cls-2" d="M7.68,10.43a2,2,0,0,1,.61-1.57C9.58,7.61,10.53,7,10.53,6.23A1.18,1.18,0,0,0,9.27,5,1.62,1.62,0,0,0,7.54,6.56l-2.7-.18a4,4,0,0,1,4.37-3.8c2.14,0,3.94,1.19,3.94,3.45,0,1.33-.51,2.14-2.17,3.45a1.46,1.46,0,0,0-.68,1.21V11.2H7.68V10.43ZM9,12.18a1.61,1.61,0,1,1-1.61,1.61A1.61,1.61,0,0,1,9,12.18Z"/></svg>