<svg id="Layer_1" data-name="Layer 1" xmlns="http://www.w3.org/2000/svg" viewBox="0 0 75.76 44.12"><defs><style>.cls-1{fill:none;}</style></defs><title>ogen</title><path d="M37.88,0A43.55,43.55,0,0,0,0,22.06a43.56,43.56,0,0,0,75.76,0A43.56,43.56,0,0,0,37.88,0M10,22.06A35.34,35.34,0,0,1,33.24,8.69a14.14,14.14,0,0,0,0,26.74A35.33,35.33,0,0,1,10,22.06M42.5,35.43a14.14,14.14,0,0,0,0-26.74A35.33,35.33,0,0,1,65.82,22.06,35.33,35.33,0,0,1,42.5,35.43"/><rect class="cls-1" x="-95.76" y="-64.12" width="290.85" height="170.9"/></svg>