<svg id="Layer_1" data-name="Layer 1" xmlns="http://www.w3.org/2000/svg" viewBox="0 0 38.59 39.65"><defs><style>.cls-1{fill:#f00;}.cls-2{fill:#fff;}</style></defs><title>icon3</title><path class="cls-1" d="M130.29,77.34c0,0.09,0,.19,0,0.28a5.1,5.1,0,1,0-3.17-6A6.72,6.72,0,0,1,130.29,77.34Z" transform="translate(-104.57 -51.3)"/><path class="cls-1" d="M120.55,71.33a5.12,5.12,0,1,0-3.69,6.47c0-.15,0-0.31,0-0.46A6.72,6.72,0,0,1,120.55,71.33Z" transform="translate(-104.57 -51.3)"/><path class="cls-1" d="M142.13,86.41a5.65,5.65,0,0,0-5.63-5.63h-7.16a6.8,6.8,0,0,1-1.18,1.46h0.91a7,7,0,0,1,6.51,5.11h6.56V86.41Z" transform="translate(-104.57 -51.3)"/><path class="cls-1" d="M118.27,82.24H119a6.8,6.8,0,0,1-1.18-1.46h-6.55a5.65,5.65,0,0,0-5.63,5.63v0.94h6.15A7,7,0,0,1,118.27,82.24Z" transform="translate(-104.57 -51.3)"/><circle class="cls-1" cx="18.99" cy="26.04" r="4.9"/><path class="cls-1" d="M133.73,90a5.65,5.65,0,0,0-5.63-5.63h-8.87A5.65,5.65,0,0,0,113.6,90v0.94h20.13V90Z" transform="translate(-104.57 -51.3)"/><path class="cls-1" d="M112.39,53.79s0-.08,0-0.13h-6a2,2,0,0,0-1.83,2.08v5.18A2,2,0,0,0,106.41,63h0.71a4.21,4.21,0,0,0,2.78,2.16,2.4,2.4,0,0,1-.61-2.16h4.26a4.5,4.5,0,0,1-1.16-3V53.79Z" transform="translate(-104.57 -51.3)"/><path class="cls-1" d="M141.34,53.66h-6s0,0.08,0,.13V60a4.5,4.5,0,0,1-1.16,3h4.26a2.4,2.4,0,0,1-.61,2.16A4.21,4.21,0,0,0,140.63,63h0.71a2,2,0,0,0,1.83-2.08V55.75A2,2,0,0,0,141.34,53.66Z" transform="translate(-104.57 -51.3)"/><path class="cls-1" d="M133.42,53.66a2.4,2.4,0,0,0-2.3-2.37H116.62a2.4,2.4,0,0,0-2.3,2.37s0,0.08,0,.13V60a2.41,2.41,0,0,0,2.3,2.49h0.89a5.17,5.17,0,0,0,.34.54,5.37,5.37,0,0,0,3.15,2,2.77,2.77,0,0,1-.76-2.59h10.89a2.41,2.41,0,0,0,2.3-2.49V53.79S133.42,53.71,133.42,53.66Z" transform="translate(-104.57 -51.3)"/><g id="_Group_" data-name="&lt;Group&gt;"><g id="_Group_2" data-name="&lt;Group&gt;"><path id="_Path_" data-name="&lt;Path&gt;" class="cls-2" d="M118.89,54.71c0-.06.07-0.06,0.1,0l0.52,1.05a0.25,0.25,0,0,0,.16.12L120.84,56c0.06,0,.08.05,0,0.1L120,57a0.24,0.24,0,0,0-.06.19l0.2,1.15c0,0.06,0,.09-0.08.06l-1-.55a0.24,0.24,0,0,0-.2,0l-1,.55c-0.06,0-.09,0-0.08-0.06l0.2-1.15a0.24,0.24,0,0,0-.06-0.19L117,56.14s0-.09,0-0.1l1.16-.17a0.24,0.24,0,0,0,.16-0.12Z" transform="translate(-104.57 -51.3)"/></g><g id="_Group_3" data-name="&lt;Group&gt;"><path id="_Path_2" data-name="&lt;Path&gt;" class="cls-2" d="M123.82,54.71c0-.06.07-0.06,0.1,0l0.52,1.05a0.24,0.24,0,0,0,.16.12L125.77,56c0.06,0,.08.05,0,0.1L125,57a0.24,0.24,0,0,0-.06.19l0.2,1.15c0,0.06,0,.09-0.08.06l-1-.55a0.24,0.24,0,0,0-.2,0l-1,.55c-0.06,0-.09,0-0.08-0.06l0.2-1.15a0.24,0.24,0,0,0-.06-0.19l-0.84-.82s0-.09,0-0.1l1.16-.17a0.25,0.25,0,0,0,.16-0.12Z" transform="translate(-104.57 -51.3)"/></g><g id="_Group_4" data-name="&lt;Group&gt;"><path id="_Path_3" data-name="&lt;Path&gt;" class="cls-2" d="M128.75,54.71c0-.06.07-0.06,0.1,0l0.52,1.05a0.25,0.25,0,0,0,.16.12L130.69,56c0.06,0,.08.05,0,0.1l-0.84.82a0.24,0.24,0,0,0-.06.19l0.2,1.15c0,0.06,0,.09-0.08.06l-1-.55a0.24,0.24,0,0,0-.2,0l-1,.55c-0.06,0-.09,0-0.08-0.06l0.2-1.15a0.24,0.24,0,0,0-.06-0.19l-0.84-.82s0-.09,0-0.1l1.16-.17a0.24,0.24,0,0,0,.16-0.12Z" transform="translate(-104.57 -51.3)"/></g></g></svg>
